<svg width="15" height="16" viewBox="0 0 15 16" fill="none" xmlns="http://www.w3.org/2000/svg">
<path d="M14.2745 0.403692C14.2745 0.180513 14.0714 0 13.8203 0H2.80246C1.25538 0 0 1.11918 0 2.49108V13.5089C0 14.8841 1.25908 16 2.80246 16H13.824C14.0751 16 14.2782 15.8195 14.2782 15.5963V4.58174C14.2782 4.35856 14.0751 4.17805 13.824 4.17805H2.80246C1.75754 4.17805 0.904615 3.4199 0.904615 2.49108C0.904615 1.56226 1.75754 0.804103 2.80246 0.804103H13.824C14.0714 0.804103 14.2745 0.62359 14.2745 0.403692ZM2.80246 4.98215H13.3698V15.1959H2.80246C1.75754 15.1959 0.904615 14.4377 0.904615 13.5089V4.32246C1.40308 4.73272 2.07138 4.98215 2.80246 4.98215Z" fill="#BFBFBF"/>
<path d="M2.95757 2.12677C2.7065 2.12677 2.50342 2.30728 2.50342 2.53046C2.50342 2.75364 2.7065 2.93415 2.95757 2.93415H13.2997C13.5508 2.93415 13.7539 2.75364 13.7539 2.53046C13.7539 2.30728 13.5508 2.12677 13.2997 2.12677H2.95757Z" fill="#BFBFBF"/>
<path d="M10.3281 6.85156C10.237 7.0599 10.1556 7.24219 10.084 7.39844C10.0124 7.55469 9.95052 7.68815 9.89844 7.79883C9.83984 7.92253 9.79102 8.0332 9.75195 8.13086C9.7194 8.20247 9.67708 8.30013 9.625 8.42383C9.57292 8.53451 9.50781 8.68099 9.42969 8.86328C9.35807 9.03906 9.26367 9.26693 9.14648 9.54688C9.08789 9.30599 9.01628 9.0944 8.93164 8.91211C8.84701 8.72982 8.75586 8.57031 8.6582 8.43359C8.56055 8.29688 8.45638 8.1862 8.3457 8.10156C8.24154 8.01042 8.13737 7.93555 8.0332 7.87695C7.79232 7.74674 7.53841 7.67513 7.27148 7.66211C6.91992 7.68164 6.64323 7.74023 6.44141 7.83789C6.24609 7.92904 6.10286 8.03646 6.01172 8.16016C5.92057 8.27734 5.87174 8.40104 5.86523 8.53125C5.85872 8.65495 5.875 8.75911 5.91406 8.84375C5.94661 8.92188 6.06055 9.01302 6.25586 9.11719C6.45768 9.22135 6.69857 9.3418 6.97852 9.47852C7.26497 9.60872 7.57096 9.75846 7.89648 9.92773C8.22201 10.0905 8.52148 10.2728 8.79492 10.4746C9.07487 10.6699 9.30924 10.8848 9.49805 11.1191C9.69336 11.347 9.80078 11.5911 9.82031 11.8516C9.83984 12.1836 9.83659 12.4831 9.81055 12.75C9.78451 13.0169 9.69336 13.2448 9.53711 13.4336C9.38086 13.6224 9.13672 13.7721 8.80469 13.8828C8.47917 13.9935 8.02669 14.0618 7.44727 14.0879C6.84831 14.1139 6.35677 14.0814 5.97266 13.9902C5.58854 13.8991 5.27604 13.7754 5.03516 13.6191C4.80078 13.4629 4.625 13.2904 4.50781 13.1016C4.39714 12.9128 4.31576 12.7337 4.26367 12.5645C4.21159 12.3887 4.17578 12.2389 4.15625 12.1152C4.13672 11.985 4.10417 11.9069 4.05859 11.8809C4.00651 11.8483 3.95443 11.819 3.90234 11.793C3.85677 11.7669 3.80794 11.7441 3.75586 11.7246C3.70378 11.6986 3.65169 11.6758 3.59961 11.6562L6.44141 11.1973C6.27865 11.3275 6.15169 11.4479 6.06055 11.5586C5.97591 11.6693 5.91081 11.7669 5.86523 11.8516C5.81315 11.9492 5.77734 12.0404 5.75781 12.125C5.74479 12.2161 5.77409 12.3301 5.8457 12.4668C5.91732 12.6035 6.01497 12.737 6.13867 12.8672C6.26888 12.9909 6.41862 13.0951 6.58789 13.1797C6.75716 13.2643 6.93294 13.3001 7.11523 13.2871C7.3431 13.2676 7.52865 13.2122 7.67188 13.1211C7.8151 13.0234 7.92253 12.903 7.99414 12.7598C8.07227 12.6165 8.11784 12.4603 8.13086 12.291C8.14388 12.1217 8.1276 11.9557 8.08203 11.793C8.04297 11.6237 7.97786 11.4674 7.88672 11.3242C7.79557 11.1745 7.68815 11.0508 7.56445 10.9531C7.45378 10.875 7.28125 10.8001 7.04688 10.7285C6.81901 10.6569 6.56185 10.5788 6.27539 10.4941C5.99544 10.4095 5.70573 10.3118 5.40625 10.2012C5.11328 10.0905 4.84635 9.95378 4.60547 9.79102C4.37109 9.62826 4.18229 9.4362 4.03906 9.21484C3.90234 8.99349 3.85026 8.72656 3.88281 8.41406C3.90885 8.14714 3.99349 7.92578 4.13672 7.75C4.28646 7.56771 4.47201 7.42448 4.69336 7.32031C4.92122 7.20964 5.17188 7.12826 5.44531 7.07617C5.72526 7.02409 6.00846 6.99479 6.29492 6.98828C6.58789 6.97526 6.87435 6.97852 7.1543 6.99805C7.44076 7.01758 7.69792 7.04036 7.92578 7.06641C8.15365 7.09245 8.3457 7.11849 8.50195 7.14453C8.66471 7.16406 8.76562 7.17708 8.80469 7.18359C8.97396 7.19661 9.14323 7.19336 9.3125 7.17383C9.46224 7.16081 9.625 7.13151 9.80078 7.08594C9.98307 7.03385 10.1589 6.95573 10.3281 6.85156Z" fill="#BFBFBF"/>
</svg>
