<svg width="15" height="16" viewBox="0 0 15 16" fill="none" xmlns="http://www.w3.org/2000/svg">
<path d="M14.2745 0.403692C14.2745 0.180513 14.0714 0 13.8203 0H2.80246C1.25538 0 0 1.11918 0 2.49108V13.5089C0 14.8841 1.25908 16 2.80246 16H13.824C14.0751 16 14.2782 15.8195 14.2782 15.5963V4.58174C14.2782 4.35856 14.0751 4.17805 13.824 4.17805H2.80246C1.75754 4.17805 0.904615 3.4199 0.904615 2.49108C0.904615 1.56226 1.75754 0.804103 2.80246 0.804103H13.824C14.0714 0.804103 14.2745 0.62359 14.2745 0.403692ZM2.80246 4.98215H13.3698V15.1959H2.80246C1.75754 15.1959 0.904615 14.4377 0.904615 13.5089V4.32246C1.40308 4.73272 2.07138 4.98215 2.80246 4.98215Z" fill="#BFBFBF"/>
<path d="M2.95757 2.12677C2.7065 2.12677 2.50342 2.30728 2.50342 2.53046C2.50342 2.75364 2.7065 2.93415 2.95757 2.93415H13.2997C13.5508 2.93415 13.7539 2.75364 13.7539 2.53046C13.7539 2.30728 13.5508 2.12677 13.2997 2.12677H2.95757Z" fill="#BFBFBF"/>
<path d="M3.09021 6.99805C3.29854 7.00456 3.48083 7.00781 3.63708 7.00781C3.79333 7.0013 3.92029 6.99805 4.01794 6.99805H4.30115C4.37276 6.99154 4.46065 6.98828 4.56482 6.98828C4.65597 6.98828 4.76664 6.98828 4.89685 6.98828C5.02706 6.98828 5.1768 6.99154 5.34607 6.99805C5.39815 7.18034 5.45675 7.35938 5.52185 7.53516C5.59347 7.70443 5.65531 7.85742 5.7074 7.99414C5.7725 8.1569 5.83761 8.3099 5.90271 8.45312C5.96781 8.59635 6.04594 8.76888 6.13708 8.9707C6.21521 9.13997 6.30961 9.34831 6.42029 9.5957C6.53097 9.83659 6.66117 10.1133 6.81091 10.4258C6.88253 10.224 6.94763 10.0384 7.00623 9.86914C7.07133 9.69987 7.12667 9.55339 7.17224 9.42969C7.22432 9.28646 7.26664 9.15625 7.29919 9.03906C7.33175 8.92188 7.36755 8.77865 7.40662 8.60938C7.43917 8.46615 7.47498 8.29362 7.51404 8.0918C7.55961 7.88997 7.60518 7.6556 7.65076 7.38867C7.83956 7.38867 8.00883 7.38867 8.15857 7.38867C8.30831 7.38867 8.43852 7.38542 8.54919 7.37891C8.67289 7.37891 8.78357 7.37565 8.88123 7.36914C8.98539 7.36914 9.12537 7.36263 9.30115 7.34961C9.45089 7.33659 9.64945 7.32682 9.89685 7.32031C10.1508 7.30729 10.4633 7.29102 10.8344 7.27148C10.6976 7.36914 10.587 7.4668 10.5023 7.56445C10.4242 7.6556 10.3623 7.73698 10.3168 7.80859C10.2647 7.89323 10.2321 7.97461 10.2191 8.05273C10.2061 8.11784 10.1931 8.26758 10.1801 8.50195C10.1735 8.73633 10.1638 9.01628 10.1508 9.3418C10.1442 9.66081 10.1377 10.0026 10.1312 10.3672C10.1312 10.7318 10.1345 11.0768 10.141 11.4023C10.1475 11.7279 10.1573 12.0111 10.1703 12.252C10.1898 12.4863 10.2159 12.6361 10.2484 12.7012C10.294 12.7793 10.3558 12.8704 10.434 12.9746C10.5056 13.0658 10.5967 13.1699 10.7074 13.2871C10.8246 13.4043 10.9776 13.5345 11.1664 13.6777C10.8669 13.6908 10.6163 13.7005 10.4144 13.707C10.2191 13.7135 10.0564 13.7201 9.92615 13.7266C9.77641 13.7331 9.65597 13.7363 9.56482 13.7363C9.46716 13.7363 9.3337 13.7396 9.16443 13.7461C9.01469 13.7526 8.81612 13.7624 8.56873 13.7754C8.32133 13.7819 8.00232 13.7949 7.61169 13.8145C7.70284 13.7103 7.78748 13.6061 7.8656 13.502C7.94373 13.3978 8.00883 13.3034 8.06091 13.2188C8.12602 13.1211 8.18136 13.0267 8.22693 12.9355C8.2725 12.8118 8.30831 12.5872 8.33435 12.2617C8.36039 11.9818 8.37992 11.5814 8.39294 11.0605C8.40597 10.5332 8.40597 9.82682 8.39294 8.94141C8.26925 9.14323 8.15857 9.34505 8.06091 9.54688C7.96977 9.74219 7.88839 9.92122 7.81677 10.084C7.73865 10.2728 7.66703 10.4551 7.60193 10.6309C7.53682 10.8132 7.46847 11.015 7.39685 11.2363C7.33175 11.4251 7.25362 11.6497 7.16248 11.9102C7.07784 12.1706 6.98018 12.457 6.86951 12.7695L6.49841 12.7891C6.44633 12.5286 6.39425 12.2943 6.34216 12.0859C6.29008 11.8711 6.238 11.6888 6.18591 11.5391C6.12732 11.3633 6.06873 11.207 6.01013 11.0703C5.94503 10.9336 5.87341 10.7806 5.79529 10.6113C5.72367 10.4681 5.63578 10.2988 5.53162 10.1035C5.43396 9.9082 5.32003 9.6901 5.18982 9.44922C5.12472 10.1133 5.08565 10.6536 5.07263 11.0703C5.05961 11.4805 5.05961 11.7995 5.07263 12.0273C5.08565 12.3008 5.10518 12.4993 5.13123 12.623C5.17029 12.7337 5.23214 12.8574 5.31677 12.9941C5.38839 13.1113 5.48604 13.2513 5.60974 13.4141C5.73995 13.5703 5.90597 13.7461 6.10779 13.9414C5.96456 13.9414 5.81482 13.9414 5.65857 13.9414C5.50232 13.9414 5.35909 13.9447 5.22888 13.9512C5.07263 13.9577 4.91964 13.9609 4.7699 13.9609C4.61365 13.9674 4.43136 13.9772 4.22302 13.9902C4.04073 14.0033 3.82263 14.0163 3.56873 14.0293C3.31482 14.0423 3.02185 14.0651 2.68982 14.0977C2.83305 14.0065 2.95024 13.9186 3.04138 13.834C3.13253 13.7428 3.20414 13.6615 3.25623 13.5898C3.32133 13.5052 3.37016 13.4206 3.40271 13.3359C3.42224 13.2839 3.43852 13.1699 3.45154 12.9941C3.47107 12.8184 3.48735 12.6035 3.50037 12.3496C3.5199 12.0957 3.53292 11.8125 3.53943 11.5C3.55245 11.1875 3.56222 10.8717 3.56873 10.5527C3.58175 10.2272 3.59151 9.91146 3.59802 9.60547C3.60453 9.29297 3.60779 9.01302 3.60779 8.76562C3.6143 8.51172 3.61755 8.30013 3.61755 8.13086C3.61755 7.96159 3.61755 7.85417 3.61755 7.80859C3.59802 7.71094 3.56873 7.61328 3.52966 7.51562C3.49711 7.43099 3.44503 7.3431 3.37341 7.25195C3.3018 7.16081 3.2074 7.07617 3.09021 6.99805Z" fill="#BFBFBF"/>
</svg>
