<svg width="15" height="16" viewBox="0 0 15 16" fill="none" xmlns="http://www.w3.org/2000/svg">
<path d="M14.2745 0.403692C14.2745 0.180513 14.0714 0 13.8203 0H2.80246C1.25538 0 0 1.11918 0 2.49108V13.5089C0 14.8841 1.25908 16 2.80246 16H13.824C14.0751 16 14.2782 15.8195 14.2782 15.5963V4.58174C14.2782 4.35856 14.0751 4.17805 13.824 4.17805H2.80246C1.75754 4.17805 0.904615 3.4199 0.904615 2.49108C0.904615 1.56226 1.75754 0.804103 2.80246 0.804103H13.824C14.0714 0.804103 14.2745 0.62359 14.2745 0.403692ZM2.80246 4.98215H13.3698V15.1959H2.80246C1.75754 15.1959 0.904615 14.4377 0.904615 13.5089V4.32246C1.40308 4.73272 2.07138 4.98215 2.80246 4.98215Z" fill="#BFBFBF"/>
<path d="M2.95757 2.12677C2.7065 2.12677 2.50342 2.30728 2.50342 2.53046C2.50342 2.75364 2.7065 2.93415 2.95757 2.93415H13.2997C13.5508 2.93415 13.7539 2.75364 13.7539 2.53046C13.7539 2.30728 13.5508 2.12677 13.2997 2.12677H2.95757Z" fill="#BFBFBF"/>
<path d="M2.43591 7.13477C2.65076 7.16081 2.84607 7.18034 3.02185 7.19336C3.19112 7.20638 3.33761 7.2194 3.4613 7.23242C3.60453 7.24544 3.73149 7.25521 3.84216 7.26172C3.95935 7.26172 4.10909 7.25846 4.29138 7.25195C4.44763 7.24544 4.6462 7.23568 4.88708 7.22266C5.12797 7.20964 5.42419 7.18685 5.77576 7.1543C5.60649 7.25195 5.46651 7.34961 5.35583 7.44727C5.25167 7.54492 5.17029 7.63281 5.11169 7.71094C5.04008 7.80208 4.988 7.89323 4.95544 7.98438C4.93591 8.10807 4.94242 8.34896 4.97498 8.70703C4.988 8.85677 5.00753 9.04232 5.03357 9.26367C5.06612 9.47852 5.10518 9.73568 5.15076 10.0352C5.20284 10.3281 5.26469 10.6667 5.3363 11.0508C5.41443 11.4349 5.50232 11.8711 5.59998 12.3594C5.73018 11.9883 5.83761 11.6595 5.92224 11.373C6.00688 11.0801 6.07849 10.8294 6.13708 10.6211C6.20219 10.3867 6.25753 10.1784 6.3031 9.99609C6.34867 9.80729 6.40401 9.56315 6.46912 9.26367C6.5212 9.00977 6.58956 8.68099 6.67419 8.27734C6.75883 7.8737 6.863 7.37565 6.98669 6.7832L7.33826 6.83203C7.37081 7.29427 7.40336 7.70117 7.43591 8.05273C7.47498 8.4043 7.50753 8.70378 7.53357 8.95117C7.55961 9.23763 7.58565 9.48503 7.61169 9.69336C7.63774 9.88216 7.6768 10.1003 7.72888 10.3477C7.77445 10.556 7.83305 10.8132 7.90466 11.1191C7.97628 11.4186 8.07068 11.7572 8.18787 12.1348C8.30505 11.6725 8.40922 11.2591 8.50037 10.8945C8.59802 10.5299 8.6794 10.2077 8.74451 9.92773C8.81612 9.64779 8.87472 9.4069 8.92029 9.20508C8.97237 9.00326 9.01469 8.83398 9.04724 8.69727C9.11886 8.37174 9.16117 8.15365 9.17419 8.04297C9.16768 7.91927 9.13839 7.79883 9.0863 7.68164C9.04073 7.57747 8.96912 7.46354 8.87146 7.33984C8.7738 7.21615 8.63057 7.0957 8.44177 6.97852C8.83891 6.99154 9.16117 7.0013 9.40857 7.00781C9.66248 7.00781 9.8643 7.00781 10.014 7.00781H10.4047H10.7562C10.8864 7.00781 11.0557 7.00781 11.264 7.00781C11.4789 7.0013 11.7523 6.99154 12.0844 6.97852C11.7979 7.12826 11.5668 7.26497 11.391 7.38867C11.2152 7.51237 11.0785 7.61654 10.9808 7.70117C10.8636 7.80534 10.779 7.89323 10.7269 7.96484C10.6748 8.09505 10.5902 8.38802 10.473 8.84375C10.4209 9.03906 10.3623 9.2832 10.2972 9.57617C10.2321 9.86263 10.154 10.2077 10.0629 10.6113C9.97823 11.015 9.88057 11.487 9.7699 12.0273C9.65922 12.5612 9.53552 13.1732 9.3988 13.8633L7.70935 13.6875L6.98669 10.6504C6.87602 11.2038 6.78813 11.653 6.72302 11.998C6.65792 12.3366 6.60909 12.6003 6.57654 12.7891C6.53748 13.0169 6.51469 13.1829 6.50818 13.2871C6.50167 13.3783 6.49516 13.4661 6.48865 13.5508C6.48214 13.6224 6.47237 13.7005 6.45935 13.7852C6.45284 13.8698 6.44307 13.9479 6.43005 14.0195H4.70154C4.53227 13.2773 4.37927 12.623 4.24255 12.0566C4.11235 11.4837 3.99516 10.9824 3.89099 10.5527C3.78682 10.123 3.69568 9.75846 3.61755 9.45898C3.54594 9.15951 3.48083 8.90885 3.42224 8.70703C3.29203 8.23828 3.19763 7.94857 3.13904 7.83789C3.09347 7.78581 3.03487 7.72396 2.96326 7.65234C2.90466 7.59375 2.83305 7.52214 2.74841 7.4375C2.65727 7.34635 2.5531 7.24544 2.43591 7.13477Z" fill="#BFBFBF"/>
</svg>
