<svg width="26" height="24" viewBox="0 0 26 24" fill="none" xmlns="http://www.w3.org/2000/svg">
<path d="M22.6674 9.90132C22.4654 9.22588 22.213 8.59868 21.8595 7.99561L24.0812 5.87281L20.8749 2.83333L18.6531 4.95614C17.416 4.2807 16.0022 3.91886 14.5379 3.89474L13.73 1L9.36224 2.10965L10.1701 5.00439C8.90779 5.70395 7.87267 6.71711 7.16575 7.875L4.13611 7.10307L3 11.3004L6.02964 12.0724C6.02964 12.7478 6.13063 13.4232 6.30735 14.0987C6.50933 14.7741 6.7618 15.4013 7.11526 16.0044L4.89352 18.1272L8.09989 21.1667L10.3216 19.0439C11.5587 19.7193 12.9726 20.0811 14.4369 20.1053L15.2448 23L19.6125 21.8904L18.8046 18.9956C20.067 18.2961 21.1021 17.2829 21.809 16.125L24.8386 16.8969L26 12.7237L22.9704 11.9518C22.9704 11.2522 22.8694 10.5768 22.6674 9.90132ZM15.5225 15.6425C13.4018 16.1732 11.2558 14.9912 10.6751 12.9649C10.0944 10.9386 11.3568 8.88816 13.4775 8.33333C15.5982 7.80263 17.7442 8.98465 18.3249 11.011C18.8804 13.0373 17.618 15.1118 15.5225 15.6425Z" fill="#CADBEA"/>
<path d="M19.8123 9.90132C19.6191 9.22588 19.3776 8.59868 19.0395 7.99561L21.1647 5.87281L18.0977 2.83333L15.9726 4.95614C14.7892 4.2807 13.4369 3.91886 12.0362 3.89474L11.2634 1L7.08562 2.10965L7.8584 5.00439C6.65093 5.70395 5.66081 6.71711 4.98463 7.875L2.08672 7.10307L1 11.3004L3.89791 12.0724C3.89791 12.7478 3.99451 13.4232 4.16356 14.0987C4.35675 14.7741 4.59824 15.4013 4.93633 16.0044L2.8112 18.1272L5.87816 21.1667L8.00329 19.0439C9.18661 19.7193 10.539 20.0811 11.9396 20.1053L12.7124 23L16.8902 21.8904L16.1175 18.9956C17.3249 18.2961 18.315 17.2829 18.9912 16.125L21.8891 16.8969L23 12.7237L20.1021 11.9518C20.1021 11.2522 20.0055 10.5768 19.8123 9.90132ZM12.978 15.6425C10.9495 16.1732 8.89682 14.9912 8.34138 12.9649C7.78595 10.9386 8.99341 8.88816 11.022 8.33333C13.0505 7.80263 15.1032 8.98465 15.6586 11.011C16.1899 13.0373 14.9824 15.1118 12.978 15.6425Z" fill="white"/>
<path d="M12.743 24C12.4213 24 12.1244 23.7773 12.0254 23.4556L11.3821 21.0308C10.2439 20.9565 9.10566 20.6349 8.06643 20.14L6.28488 21.9215C5.98796 22.2185 5.51783 22.2185 5.24565 21.9215L2.07847 18.7791C1.78154 18.4822 1.78154 18.012 2.07847 17.7399L3.86001 15.9583C3.61257 15.4387 3.41462 14.8943 3.26616 14.35C3.1177 13.7809 3.01872 13.2118 2.96924 12.6427L0.54436 11.9993C0.346411 11.9498 0.197949 11.8261 0.0989744 11.6529C-1.40109e-07 11.4797 -0.0247436 11.2818 0.0247437 11.0838L1.16295 6.80317C1.21244 6.60522 1.33616 6.45676 1.50936 6.35778C1.68257 6.25881 1.88052 6.23407 2.07847 6.28355L4.50334 6.92689C5.14668 5.96189 5.96322 5.14535 6.92822 4.50201L6.28488 2.07713C6.18591 1.68124 6.4086 1.28534 6.8045 1.16162L11.0852 0.0234119C11.481 -0.0755627 11.8769 0.14713 12.0007 0.543028L12.644 2.96791C13.7822 3.04214 14.9204 3.3638 15.9596 3.85868L17.7412 2.07713C18.0134 1.80495 18.5082 1.80495 18.7804 2.07713L21.9229 5.21958C22.2198 5.5165 22.2198 5.98663 21.9229 6.25881L20.1413 8.04035C20.3888 8.55997 20.5867 9.10433 20.7352 9.64869C20.8836 10.2178 20.9826 10.7869 21.0321 11.356L23.457 11.9993C23.8529 12.0983 24.0756 12.519 23.9766 12.9148L22.8384 17.1955C22.7889 17.3934 22.6652 17.5419 22.492 17.6409C22.3188 17.7399 22.1208 17.7646 21.9229 17.7151L19.498 17.0718C18.8547 18.0368 18.0381 18.8533 17.0731 19.4967L17.7164 21.9215C17.8154 22.3174 17.5927 22.7133 17.1968 22.837L12.9162 23.9753C12.8667 24 12.7925 24 12.743 24ZM7.91796 18.4822C8.04168 18.4822 8.1654 18.5069 8.28912 18.5811C9.40258 19.2245 10.6645 19.5461 11.9512 19.5709C12.2728 19.5709 12.5698 19.7936 12.6687 20.1152L13.2626 22.3669L16.1081 21.5999L15.5143 19.3482C15.44 19.0265 15.5637 18.6801 15.8607 18.5069C16.9741 17.8636 17.8897 16.9233 18.533 15.8346C18.7062 15.5377 19.0526 15.414 19.3743 15.4882L21.6259 16.082L22.393 13.2365L20.1413 12.6427C19.8197 12.5684 19.597 12.2715 19.597 11.9251C19.597 11.2818 19.498 10.6384 19.3495 10.0198C19.1763 9.40125 18.9289 8.8074 18.632 8.2383C18.4588 7.94138 18.5082 7.59497 18.7557 7.34753L20.3888 5.71445L18.3103 3.63598L16.6772 5.26906C16.4298 5.5165 16.0834 5.56599 15.7864 5.39278C14.673 4.74945 13.4111 4.42778 12.1244 4.40304C11.8027 4.40304 11.5058 4.18034 11.4068 3.85868L10.813 1.607L7.91796 2.3988L8.51181 4.65047C8.58604 4.97214 8.46233 5.31855 8.1654 5.49176C7.05194 6.13509 6.13642 7.07535 5.49309 8.16407C5.31988 8.46099 4.97347 8.58471 4.6518 8.51048L2.40013 7.91663L1.63308 10.7622L3.88475 11.356C4.20642 11.4302 4.42911 11.7272 4.42911 12.0736C4.42911 12.7169 4.52809 13.3602 4.67655 13.9788C4.84975 14.5974 5.09719 15.1913 5.39411 15.7604C5.56732 16.0573 5.51783 16.4037 5.2704 16.6511L3.63732 18.2842L5.71578 20.3627L7.3736 18.7296C7.52207 18.5564 7.72002 18.4822 7.91796 18.4822ZM12.0007 16.6264C11.2089 16.6264 10.4171 16.4284 9.69951 16.0078C8.63553 15.3892 7.86848 14.3995 7.54681 13.2118C7.22514 12.0241 7.39835 10.7869 8.01694 9.69818C8.63553 8.6342 9.62528 7.86715 10.813 7.54548C13.2626 6.8774 15.8112 8.36202 16.4793 10.8116C16.8009 11.9993 16.6277 13.2365 16.0091 14.3252C15.3905 15.3892 14.4008 16.1563 13.2131 16.4779C12.7925 16.5769 12.3966 16.6264 12.0007 16.6264ZM12.0007 8.85689C11.7285 8.85689 11.4563 8.88164 11.1841 8.95587C10.3676 9.17856 9.69951 9.69818 9.27886 10.4157C8.85822 11.1333 8.75925 11.9746 8.9572 12.7911C9.17989 13.6077 9.69951 14.2758 10.4171 14.6964C11.1346 15.117 11.9759 15.216 12.7925 15.0181C13.609 14.7954 14.2771 14.2758 14.6977 13.5582C15.1184 12.8406 15.2173 11.9993 15.0194 11.1828C14.6482 9.79715 13.3863 8.85689 12.0007 8.85689Z" fill="#3F4A54"/>
</svg>
