<svg width="23" height="22" viewBox="0 0 23 22" fill="none" xmlns="http://www.w3.org/2000/svg">
<rect x="0.566467" y="0.5" width="21" height="21" fill="#F2F2F2" stroke="#2290DF"/>
<path d="M1 1H21V21H1V1Z" fill="#F2F2F2" fill-opacity="0.6"/>
<g clip-path="url(#clip0_7_1013)">
<path d="M18.3808 13.24C18.2669 13.2402 18.1556 13.2063 18.0611 13.1428C17.9666 13.0792 17.8933 12.9889 17.8505 12.8834L15.231 6.52914L12.2093 12.9109C12.1772 12.9787 12.132 13.0395 12.0764 13.0899C12.0208 13.1403 11.9558 13.1792 11.8851 13.2045C11.8144 13.2298 11.7395 13.2408 11.6645 13.2371C11.5895 13.2334 11.516 13.215 11.4482 13.1829C11.3112 13.118 11.2056 13.0014 11.1545 12.8586C11.1293 12.7879 11.1182 12.713 11.1219 12.638C11.1256 12.5631 11.1441 12.4896 11.1762 12.4217L14.751 4.86972C14.7988 4.77042 14.8742 4.68705 14.9683 4.62963C15.0623 4.57222 15.1709 4.54321 15.2811 4.54611C15.3912 4.54901 15.4982 4.58369 15.589 4.64597C15.6799 4.70825 15.7509 4.79548 15.7933 4.89714L18.911 12.4491C18.9678 12.5882 18.968 12.7439 18.9117 12.8831C18.8553 13.0222 18.7468 13.1339 18.6093 13.1943C18.5374 13.226 18.4594 13.2416 18.3808 13.24Z" fill="#2290DF"/>
<path d="M16.8676 10.3143H13.3842C13.2326 10.3143 13.0873 10.2541 12.9801 10.1469C12.8729 10.0398 12.8127 9.89441 12.8127 9.74286C12.8127 9.59131 12.8729 9.44596 12.9801 9.3388C13.0873 9.23164 13.2326 9.17143 13.3842 9.17143H16.8676C17.0192 9.17143 17.1645 9.23164 17.2717 9.3388C17.3788 9.44596 17.439 9.59131 17.439 9.74286C17.439 9.89441 17.3788 10.0398 17.2717 10.1469C17.1645 10.2541 17.0192 10.3143 16.8676 10.3143Z" fill="#2290DF"/>
<path d="M4.61617 17.4549C4.51833 17.4539 4.42248 17.4272 4.33822 17.3774C4.25397 17.3277 4.18429 17.2566 4.13617 17.1714C4.05548 17.044 4.02846 16.8898 4.061 16.7425C4.09355 16.5952 4.18301 16.4667 4.30989 16.3851C8.12246 13.9714 8.48817 10.4423 8.50189 10.296C8.51741 10.1468 8.59098 10.0097 8.70673 9.91422C8.82247 9.81878 8.97111 9.77269 9.12054 9.7859C9.26998 9.7991 9.40823 9.87054 9.50545 9.98479C9.60267 10.099 9.65106 10.247 9.64017 10.3966C9.64017 10.5703 9.23332 14.6206 4.92246 17.3497C4.83252 17.4133 4.72622 17.4498 4.61617 17.4549Z" fill="#2290DF"/>
<path d="M9.74987 16.6274C9.70442 16.6343 9.65818 16.6343 9.61273 16.6274C6.81044 15.9143 4.61616 12.7051 4.52473 12.568C4.48013 12.506 4.44842 12.4356 4.4315 12.3611C4.41457 12.2866 4.41276 12.2094 4.42617 12.1342C4.43958 12.0589 4.46795 11.9872 4.50959 11.9231C4.55123 11.859 4.6053 11.804 4.6686 11.7611C4.73189 11.7183 4.80313 11.6887 4.8781 11.6739C4.95307 11.6591 5.03025 11.6595 5.10506 11.675C5.17988 11.6906 5.25081 11.721 5.31367 11.7644C5.37653 11.8079 5.43003 11.8635 5.47101 11.928C5.47101 11.9554 7.51444 14.9131 9.88701 15.5029C10.0211 15.5376 10.138 15.6198 10.216 15.7343C10.294 15.8488 10.3277 15.9877 10.311 16.1252C10.2942 16.2627 10.2281 16.3894 10.1248 16.4818C10.0216 16.5742 9.88838 16.6259 9.74987 16.6274Z" fill="#2290DF"/>
<path d="M10.6962 10.4377H3.75215C3.6006 10.4377 3.45526 10.3775 3.34809 10.2704C3.24093 10.1632 3.18073 10.0178 3.18073 9.86629C3.18073 9.71474 3.24093 9.56939 3.34809 9.46223C3.45526 9.35506 3.6006 9.29486 3.75215 9.29486H10.6962C10.8477 9.29486 10.9931 9.35506 11.1002 9.46223C11.2074 9.56939 11.2676 9.71474 11.2676 9.86629C11.2676 10.0178 11.2074 10.1632 11.1002 10.2704C10.9931 10.3775 10.8477 10.4377 10.6962 10.4377Z" fill="#2290DF"/>
<path d="M7.03445 10.4377C6.90366 10.437 6.77714 10.3911 6.67633 10.3078C6.57552 10.2245 6.50662 10.1089 6.4813 9.98057L6.0973 8.39886C6.07669 8.32484 6.07122 8.24742 6.08121 8.17124C6.0912 8.09505 6.11645 8.02167 6.15546 7.95547C6.19446 7.88927 6.24642 7.83162 6.30821 7.78596C6.37001 7.7403 6.44038 7.70757 6.51512 7.68973C6.58986 7.67189 6.66742 7.66931 6.74318 7.68214C6.81894 7.69496 6.89133 7.72294 6.95603 7.76439C7.02073 7.80583 7.0764 7.8599 7.11972 7.92336C7.16305 7.98682 7.19312 8.05836 7.20816 8.13371L7.59216 9.71543C7.61214 9.78897 7.61732 9.86575 7.60741 9.94132C7.59749 10.0169 7.57269 10.0897 7.53442 10.1556C7.49615 10.2215 7.44518 10.2792 7.38447 10.3253C7.32376 10.3713 7.25451 10.4049 7.18073 10.424C7.13264 10.4341 7.08357 10.4387 7.03445 10.4377Z" fill="#2290DF"/>
</g>
<defs>
<clipPath id="clip0_7_1013">
<rect width="16" height="16" fill="white" transform="translate(3.06647 3)"/>
</clipPath>
</defs>
</svg>
